<mxfile host="app.diagrams.net" agent="Mozilla/5.0 (Windows NT 10.0; Win64; x64) AppleWebKit/537.36 (KHTML, like Gecko) Chrome/135.0.0.0 Safari/537.36" version="26.2.9">
  <diagram name="PÃ¡gina-1" id="UtmxGTYnJZRZ2kFNZ0kt">
    <mxGraphModel dx="1028" dy="514" grid="1" gridSize="10" guides="1" tooltips="1" connect="1" arrows="1" fold="1" page="1" pageScale="1" pageWidth="5000" pageHeight="5000" math="0" shadow="0">
      <root>
        <mxCell id="0" />
        <mxCell id="1" parent="0" />
        <mxCell id="9QiaCKzGw6aInTvv5w-R-36" value="" style="rounded=0;whiteSpace=wrap;html=1;movable=0;resizable=0;rotatable=0;deletable=0;editable=0;locked=1;connectable=0;" vertex="1" parent="1">
          <mxGeometry x="80" width="640" height="440" as="geometry" />
        </mxCell>
        <mxCell id="9QiaCKzGw6aInTvv5w-R-37" value="Matriz (Cascavel)" style="text;html=1;align=center;verticalAlign=middle;whiteSpace=wrap;rounded=0;fontSize=29;movable=0;resizable=0;rotatable=0;deletable=0;editable=0;locked=1;connectable=0;" vertex="1" parent="1">
          <mxGeometry x="80" y="440" width="640" height="30" as="geometry" />
        </mxCell>
        <mxCell id="9QiaCKzGw6aInTvv5w-R-38" value="" style="rounded=0;whiteSpace=wrap;html=1;movable=0;resizable=0;rotatable=0;deletable=0;editable=0;locked=1;connectable=0;" vertex="1" parent="1">
          <mxGeometry x="335" y="50" width="120" height="40" as="geometry" />
        </mxCell>
        <mxCell id="9QiaCKzGw6aInTvv5w-R-69" style="edgeStyle=orthogonalEdgeStyle;rounded=0;orthogonalLoop=1;jettySize=auto;html=1;exitX=1;exitY=0.5;exitDx=0;exitDy=0;entryX=0.5;entryY=1;entryDx=0;entryDy=0;movable=0;resizable=0;rotatable=0;deletable=0;editable=0;locked=1;connectable=0;" edge="1" parent="1" source="9QiaCKzGw6aInTvv5w-R-40" target="9QiaCKzGw6aInTvv5w-R-42">
          <mxGeometry relative="1" as="geometry" />
        </mxCell>
        <mxCell id="9QiaCKzGw6aInTvv5w-R-70" style="edgeStyle=orthogonalEdgeStyle;rounded=0;orthogonalLoop=1;jettySize=auto;html=1;exitX=0.5;exitY=0;exitDx=0;exitDy=0;entryX=0.5;entryY=1;entryDx=0;entryDy=0;movable=0;resizable=0;rotatable=0;deletable=0;editable=0;locked=1;connectable=0;" edge="1" parent="1" source="9QiaCKzGw6aInTvv5w-R-40" target="9QiaCKzGw6aInTvv5w-R-43">
          <mxGeometry relative="1" as="geometry" />
        </mxCell>
        <mxCell id="9QiaCKzGw6aInTvv5w-R-71" style="edgeStyle=orthogonalEdgeStyle;rounded=0;orthogonalLoop=1;jettySize=auto;html=1;exitX=0;exitY=0.5;exitDx=0;exitDy=0;entryX=0.5;entryY=1;entryDx=0;entryDy=0;movable=0;resizable=0;rotatable=0;deletable=0;editable=0;locked=1;connectable=0;" edge="1" parent="1" source="9QiaCKzGw6aInTvv5w-R-40" target="9QiaCKzGw6aInTvv5w-R-41">
          <mxGeometry relative="1" as="geometry" />
        </mxCell>
        <mxCell id="9QiaCKzGw6aInTvv5w-R-72" style="edgeStyle=orthogonalEdgeStyle;rounded=0;orthogonalLoop=1;jettySize=auto;html=1;exitX=0.5;exitY=1;exitDx=0;exitDy=0;entryX=0.5;entryY=0;entryDx=0;entryDy=0;movable=0;resizable=0;rotatable=0;deletable=0;editable=0;locked=1;connectable=0;" edge="1" parent="1" source="9QiaCKzGw6aInTvv5w-R-40" target="9QiaCKzGw6aInTvv5w-R-56">
          <mxGeometry relative="1" as="geometry" />
        </mxCell>
        <mxCell id="9QiaCKzGw6aInTvv5w-R-40" value="" style="rounded=0;whiteSpace=wrap;html=1;movable=0;resizable=0;rotatable=0;deletable=0;editable=0;locked=1;connectable=0;" vertex="1" parent="1">
          <mxGeometry x="335" y="140" width="120" height="40" as="geometry" />
        </mxCell>
        <mxCell id="9QiaCKzGw6aInTvv5w-R-41" value="" style="rounded=0;whiteSpace=wrap;html=1;movable=0;resizable=0;rotatable=0;deletable=0;editable=0;locked=1;connectable=0;" vertex="1" parent="1">
          <mxGeometry x="120" y="50" width="120" height="40" as="geometry" />
        </mxCell>
        <mxCell id="9QiaCKzGw6aInTvv5w-R-42" value="" style="rounded=0;whiteSpace=wrap;html=1;movable=0;resizable=0;rotatable=0;deletable=0;editable=0;locked=1;connectable=0;" vertex="1" parent="1">
          <mxGeometry x="570" y="50" width="120" height="40" as="geometry" />
        </mxCell>
        <mxCell id="9QiaCKzGw6aInTvv5w-R-43" value="Servidor Sispetro" style="text;html=1;align=center;verticalAlign=middle;whiteSpace=wrap;rounded=0;movable=0;resizable=0;rotatable=0;deletable=0;editable=0;locked=1;connectable=0;" vertex="1" parent="1">
          <mxGeometry x="335" y="55" width="120" height="30" as="geometry" />
        </mxCell>
        <mxCell id="9QiaCKzGw6aInTvv5w-R-45" value="Firewall" style="text;html=1;align=center;verticalAlign=middle;whiteSpace=wrap;rounded=0;movable=0;resizable=0;rotatable=0;deletable=0;editable=0;locked=1;connectable=0;" vertex="1" parent="1">
          <mxGeometry x="360" y="150" width="70" height="20" as="geometry" />
        </mxCell>
        <mxCell id="9QiaCKzGw6aInTvv5w-R-46" value="Servidor Reserva" style="text;html=1;align=center;verticalAlign=middle;whiteSpace=wrap;rounded=0;movable=0;resizable=0;rotatable=0;deletable=0;editable=0;locked=1;connectable=0;" vertex="1" parent="1">
          <mxGeometry x="120" y="55" width="120" height="30" as="geometry" />
        </mxCell>
        <mxCell id="9QiaCKzGw6aInTvv5w-R-47" value="Servidor (GLPI)" style="text;html=1;align=center;verticalAlign=middle;whiteSpace=wrap;rounded=0;movable=0;resizable=0;rotatable=0;deletable=0;editable=0;locked=1;connectable=0;" vertex="1" parent="1">
          <mxGeometry x="570" y="55" width="120" height="30" as="geometry" />
        </mxCell>
        <mxCell id="9QiaCKzGw6aInTvv5w-R-73" style="edgeStyle=orthogonalEdgeStyle;rounded=0;orthogonalLoop=1;jettySize=auto;html=1;exitX=0;exitY=0.25;exitDx=0;exitDy=0;entryX=1;entryY=0.5;entryDx=0;entryDy=0;movable=0;resizable=0;rotatable=0;deletable=0;editable=0;locked=1;connectable=0;" edge="1" parent="1" source="9QiaCKzGw6aInTvv5w-R-56" target="9QiaCKzGw6aInTvv5w-R-60">
          <mxGeometry relative="1" as="geometry" />
        </mxCell>
        <mxCell id="9QiaCKzGw6aInTvv5w-R-74" style="edgeStyle=orthogonalEdgeStyle;rounded=0;orthogonalLoop=1;jettySize=auto;html=1;exitX=0;exitY=0.75;exitDx=0;exitDy=0;entryX=1;entryY=0.5;entryDx=0;entryDy=0;movable=0;resizable=0;rotatable=0;deletable=0;editable=0;locked=1;connectable=0;" edge="1" parent="1" source="9QiaCKzGw6aInTvv5w-R-56" target="9QiaCKzGw6aInTvv5w-R-63">
          <mxGeometry relative="1" as="geometry" />
        </mxCell>
        <mxCell id="9QiaCKzGw6aInTvv5w-R-75" style="edgeStyle=orthogonalEdgeStyle;rounded=0;orthogonalLoop=1;jettySize=auto;html=1;exitX=1;exitY=0.25;exitDx=0;exitDy=0;entryX=0;entryY=0.5;entryDx=0;entryDy=0;movable=0;resizable=0;rotatable=0;deletable=0;editable=0;locked=1;connectable=0;" edge="1" parent="1" source="9QiaCKzGw6aInTvv5w-R-56" target="9QiaCKzGw6aInTvv5w-R-62">
          <mxGeometry relative="1" as="geometry" />
        </mxCell>
        <mxCell id="9QiaCKzGw6aInTvv5w-R-76" style="edgeStyle=orthogonalEdgeStyle;rounded=0;orthogonalLoop=1;jettySize=auto;html=1;exitX=1;exitY=0.75;exitDx=0;exitDy=0;entryX=0;entryY=0.5;entryDx=0;entryDy=0;movable=0;resizable=0;rotatable=0;deletable=0;editable=0;locked=1;connectable=0;" edge="1" parent="1" source="9QiaCKzGw6aInTvv5w-R-56" target="9QiaCKzGw6aInTvv5w-R-61">
          <mxGeometry relative="1" as="geometry" />
        </mxCell>
        <mxCell id="9QiaCKzGw6aInTvv5w-R-56" value="" style="rounded=0;whiteSpace=wrap;html=1;movable=0;resizable=0;rotatable=0;deletable=0;editable=0;locked=1;connectable=0;" vertex="1" parent="1">
          <mxGeometry x="335" y="240" width="120" height="40" as="geometry" />
        </mxCell>
        <mxCell id="9QiaCKzGw6aInTvv5w-R-57" value="SWITCH" style="text;html=1;align=center;verticalAlign=middle;whiteSpace=wrap;rounded=0;movable=0;resizable=0;rotatable=0;deletable=0;editable=0;locked=1;connectable=0;" vertex="1" parent="1">
          <mxGeometry x="365" y="245" width="60" height="30" as="geometry" />
        </mxCell>
        <mxCell id="9QiaCKzGw6aInTvv5w-R-60" value="" style="rounded=0;whiteSpace=wrap;html=1;movable=0;resizable=0;rotatable=0;deletable=0;editable=0;locked=1;connectable=0;" vertex="1" parent="1">
          <mxGeometry x="120" y="200" width="120" height="40" as="geometry" />
        </mxCell>
        <mxCell id="9QiaCKzGw6aInTvv5w-R-61" value="" style="rounded=0;whiteSpace=wrap;html=1;movable=0;resizable=0;rotatable=0;deletable=0;editable=0;locked=1;connectable=0;" vertex="1" parent="1">
          <mxGeometry x="570" y="290" width="120" height="40" as="geometry" />
        </mxCell>
        <mxCell id="9QiaCKzGw6aInTvv5w-R-62" value="" style="rounded=0;whiteSpace=wrap;html=1;movable=0;resizable=0;rotatable=0;deletable=0;editable=0;locked=1;connectable=0;" vertex="1" parent="1">
          <mxGeometry x="570" y="200" width="120" height="40" as="geometry" />
        </mxCell>
        <mxCell id="9QiaCKzGw6aInTvv5w-R-63" value="" style="rounded=0;whiteSpace=wrap;html=1;movable=0;resizable=0;rotatable=0;deletable=0;editable=0;locked=1;connectable=0;" vertex="1" parent="1">
          <mxGeometry x="120" y="290" width="120" height="40" as="geometry" />
        </mxCell>
        <mxCell id="9QiaCKzGw6aInTvv5w-R-64" value="Financeiro/RH" style="text;html=1;align=center;verticalAlign=middle;whiteSpace=wrap;rounded=0;movable=0;resizable=0;rotatable=0;deletable=0;editable=0;locked=1;connectable=0;" vertex="1" parent="1">
          <mxGeometry x="150" y="205" width="60" height="30" as="geometry" />
        </mxCell>
        <mxCell id="9QiaCKzGw6aInTvv5w-R-65" value="COMERCIAL" style="text;html=1;align=center;verticalAlign=middle;whiteSpace=wrap;rounded=0;movable=0;resizable=0;rotatable=0;deletable=0;editable=0;locked=1;connectable=0;" vertex="1" parent="1">
          <mxGeometry x="150" y="295" width="60" height="30" as="geometry" />
        </mxCell>
        <mxCell id="9QiaCKzGw6aInTvv5w-R-66" value="Contabilidade" style="text;html=1;align=center;verticalAlign=middle;whiteSpace=wrap;rounded=0;movable=0;resizable=0;rotatable=0;deletable=0;editable=0;locked=1;connectable=0;" vertex="1" parent="1">
          <mxGeometry x="600" y="205" width="60" height="30" as="geometry" />
        </mxCell>
        <mxCell id="9QiaCKzGw6aInTvv5w-R-67" value="T.I" style="text;html=1;align=center;verticalAlign=middle;whiteSpace=wrap;rounded=0;movable=0;resizable=0;rotatable=0;deletable=0;editable=0;locked=1;connectable=0;" vertex="1" parent="1">
          <mxGeometry x="600" y="295" width="60" height="30" as="geometry" />
        </mxCell>
        <mxCell id="9QiaCKzGw6aInTvv5w-R-133" value="" style="rounded=0;whiteSpace=wrap;html=1;movable=0;resizable=0;rotatable=0;deletable=0;editable=0;locked=1;connectable=0;" vertex="1" parent="1">
          <mxGeometry x="880" width="640" height="440" as="geometry" />
        </mxCell>
        <mxCell id="9QiaCKzGw6aInTvv5w-R-134" value="Base Log." style="text;html=1;align=center;verticalAlign=middle;whiteSpace=wrap;rounded=0;fontSize=29;movable=0;resizable=0;rotatable=0;deletable=0;editable=0;locked=1;connectable=0;" vertex="1" parent="1">
          <mxGeometry x="890" y="440" width="590" height="30" as="geometry" />
        </mxCell>
        <mxCell id="9QiaCKzGw6aInTvv5w-R-135" value="" style="rounded=0;whiteSpace=wrap;html=1;movable=0;resizable=0;rotatable=0;deletable=0;editable=0;locked=1;connectable=0;" vertex="1" parent="1">
          <mxGeometry x="1135" y="80" width="120" height="40" as="geometry" />
        </mxCell>
        <mxCell id="9QiaCKzGw6aInTvv5w-R-136" style="edgeStyle=orthogonalEdgeStyle;rounded=0;orthogonalLoop=1;jettySize=auto;html=1;exitX=1;exitY=0.5;exitDx=0;exitDy=0;entryX=0.5;entryY=1;entryDx=0;entryDy=0;movable=0;resizable=0;rotatable=0;deletable=0;editable=0;locked=1;connectable=0;" edge="1" parent="1" source="9QiaCKzGw6aInTvv5w-R-140" target="9QiaCKzGw6aInTvv5w-R-142">
          <mxGeometry relative="1" as="geometry" />
        </mxCell>
        <mxCell id="9QiaCKzGw6aInTvv5w-R-137" style="edgeStyle=orthogonalEdgeStyle;rounded=0;orthogonalLoop=1;jettySize=auto;html=1;exitX=0.5;exitY=0;exitDx=0;exitDy=0;entryX=0.5;entryY=1;entryDx=0;entryDy=0;movable=0;resizable=0;rotatable=0;deletable=0;editable=0;locked=1;connectable=0;" edge="1" parent="1" source="9QiaCKzGw6aInTvv5w-R-140" target="9QiaCKzGw6aInTvv5w-R-143">
          <mxGeometry relative="1" as="geometry" />
        </mxCell>
        <mxCell id="9QiaCKzGw6aInTvv5w-R-139" style="edgeStyle=orthogonalEdgeStyle;rounded=0;orthogonalLoop=1;jettySize=auto;html=1;exitX=0.5;exitY=1;exitDx=0;exitDy=0;entryX=0.5;entryY=0;entryDx=0;entryDy=0;movable=0;resizable=0;rotatable=0;deletable=0;editable=0;locked=1;connectable=0;" edge="1" parent="1" source="9QiaCKzGw6aInTvv5w-R-140" target="9QiaCKzGw6aInTvv5w-R-151">
          <mxGeometry relative="1" as="geometry" />
        </mxCell>
        <mxCell id="9QiaCKzGw6aInTvv5w-R-140" value="" style="rounded=0;whiteSpace=wrap;html=1;movable=0;resizable=0;rotatable=0;deletable=0;editable=0;locked=1;connectable=0;" vertex="1" parent="1">
          <mxGeometry x="1135" y="170" width="120" height="40" as="geometry" />
        </mxCell>
        <mxCell id="9QiaCKzGw6aInTvv5w-R-142" value="" style="rounded=0;whiteSpace=wrap;html=1;movable=0;resizable=0;rotatable=0;deletable=0;editable=0;locked=1;connectable=0;" vertex="1" parent="1">
          <mxGeometry x="1370" y="80" width="120" height="40" as="geometry" />
        </mxCell>
        <mxCell id="9QiaCKzGw6aInTvv5w-R-143" value="Servidor Sispetro(WEB)" style="text;html=1;align=center;verticalAlign=middle;whiteSpace=wrap;rounded=0;movable=0;resizable=0;rotatable=0;deletable=0;editable=0;locked=1;connectable=0;" vertex="1" parent="1">
          <mxGeometry x="1135" y="85" width="120" height="30" as="geometry" />
        </mxCell>
        <mxCell id="9QiaCKzGw6aInTvv5w-R-144" value="Firewall" style="text;html=1;align=center;verticalAlign=middle;whiteSpace=wrap;rounded=0;movable=0;resizable=0;rotatable=0;deletable=0;editable=0;locked=1;connectable=0;" vertex="1" parent="1">
          <mxGeometry x="1160" y="180" width="70" height="20" as="geometry" />
        </mxCell>
        <mxCell id="9QiaCKzGw6aInTvv5w-R-146" value="Servidor (Arquivos)" style="text;html=1;align=center;verticalAlign=middle;whiteSpace=wrap;rounded=0;movable=0;resizable=0;rotatable=0;deletable=0;editable=0;locked=1;connectable=0;" vertex="1" parent="1">
          <mxGeometry x="1370" y="85" width="120" height="30" as="geometry" />
        </mxCell>
        <mxCell id="9QiaCKzGw6aInTvv5w-R-161" style="edgeStyle=orthogonalEdgeStyle;rounded=0;orthogonalLoop=1;jettySize=auto;html=1;exitX=1;exitY=0.5;exitDx=0;exitDy=0;entryX=0;entryY=0.5;entryDx=0;entryDy=0;movable=0;resizable=0;rotatable=0;deletable=0;editable=0;locked=1;connectable=0;" edge="1" parent="1" source="9QiaCKzGw6aInTvv5w-R-151" target="9QiaCKzGw6aInTvv5w-R-155">
          <mxGeometry relative="1" as="geometry" />
        </mxCell>
        <mxCell id="9QiaCKzGw6aInTvv5w-R-162" style="edgeStyle=orthogonalEdgeStyle;rounded=0;orthogonalLoop=1;jettySize=auto;html=1;exitX=0;exitY=0.5;exitDx=0;exitDy=0;entryX=1;entryY=0.5;entryDx=0;entryDy=0;movable=0;resizable=0;rotatable=0;deletable=0;editable=0;locked=1;connectable=0;" edge="1" parent="1" source="9QiaCKzGw6aInTvv5w-R-151" target="9QiaCKzGw6aInTvv5w-R-153">
          <mxGeometry relative="1" as="geometry" />
        </mxCell>
        <mxCell id="9QiaCKzGw6aInTvv5w-R-151" value="" style="rounded=0;whiteSpace=wrap;html=1;movable=0;resizable=0;rotatable=0;deletable=0;editable=0;locked=1;connectable=0;" vertex="1" parent="1">
          <mxGeometry x="1135" y="270" width="120" height="40" as="geometry" />
        </mxCell>
        <mxCell id="9QiaCKzGw6aInTvv5w-R-152" value="SWITCH" style="text;html=1;align=center;verticalAlign=middle;whiteSpace=wrap;rounded=0;movable=0;resizable=0;rotatable=0;deletable=0;editable=0;locked=1;connectable=0;" vertex="1" parent="1">
          <mxGeometry x="1165" y="275" width="60" height="30" as="geometry" />
        </mxCell>
        <mxCell id="9QiaCKzGw6aInTvv5w-R-153" value="" style="rounded=0;whiteSpace=wrap;html=1;movable=0;resizable=0;rotatable=0;deletable=0;editable=0;locked=1;connectable=0;" vertex="1" parent="1">
          <mxGeometry x="930" y="270" width="120" height="40" as="geometry" />
        </mxCell>
        <mxCell id="9QiaCKzGw6aInTvv5w-R-155" value="" style="rounded=0;whiteSpace=wrap;html=1;movable=0;resizable=0;rotatable=0;deletable=0;editable=0;locked=1;connectable=0;" vertex="1" parent="1">
          <mxGeometry x="1370" y="270" width="120" height="40" as="geometry" />
        </mxCell>
        <mxCell id="9QiaCKzGw6aInTvv5w-R-157" value="Faturamento" style="text;html=1;align=center;verticalAlign=middle;whiteSpace=wrap;rounded=0;movable=0;resizable=0;rotatable=0;deletable=0;editable=0;locked=1;connectable=0;" vertex="1" parent="1">
          <mxGeometry x="960" y="275" width="60" height="30" as="geometry" />
        </mxCell>
        <mxCell id="9QiaCKzGw6aInTvv5w-R-159" value="Gerentes" style="text;html=1;align=center;verticalAlign=middle;whiteSpace=wrap;rounded=0;movable=0;resizable=0;rotatable=0;deletable=0;editable=0;locked=1;connectable=0;" vertex="1" parent="1">
          <mxGeometry x="1400" y="275" width="60" height="30" as="geometry" />
        </mxCell>
        <mxCell id="9QiaCKzGw6aInTvv5w-R-163" value="" style="rounded=0;whiteSpace=wrap;html=1;movable=0;resizable=0;rotatable=0;deletable=0;editable=0;locked=1;connectable=0;" vertex="1" parent="1">
          <mxGeometry x="1680" width="640" height="440" as="geometry" />
        </mxCell>
        <mxCell id="9QiaCKzGw6aInTvv5w-R-164" value="SGA (Cascavel)" style="text;html=1;align=center;verticalAlign=middle;whiteSpace=wrap;rounded=0;fontSize=29;movable=0;resizable=0;rotatable=0;deletable=0;editable=0;locked=1;connectable=0;" vertex="1" parent="1">
          <mxGeometry x="1680" y="440" width="640" height="30" as="geometry" />
        </mxCell>
        <mxCell id="9QiaCKzGw6aInTvv5w-R-165" value="" style="rounded=0;whiteSpace=wrap;html=1;movable=0;resizable=0;rotatable=0;deletable=0;editable=0;locked=1;connectable=0;" vertex="1" parent="1">
          <mxGeometry x="1940" y="30" width="120" height="40" as="geometry" />
        </mxCell>
        <mxCell id="9QiaCKzGw6aInTvv5w-R-167" style="edgeStyle=orthogonalEdgeStyle;rounded=0;orthogonalLoop=1;jettySize=auto;html=1;exitX=0.5;exitY=0;exitDx=0;exitDy=0;entryX=0.5;entryY=1;entryDx=0;entryDy=0;movable=0;resizable=0;rotatable=0;deletable=0;editable=0;locked=1;connectable=0;" edge="1" parent="1" source="9QiaCKzGw6aInTvv5w-R-170" target="9QiaCKzGw6aInTvv5w-R-173">
          <mxGeometry relative="1" as="geometry" />
        </mxCell>
        <mxCell id="9QiaCKzGw6aInTvv5w-R-169" style="edgeStyle=orthogonalEdgeStyle;rounded=0;orthogonalLoop=1;jettySize=auto;html=1;exitX=0.5;exitY=1;exitDx=0;exitDy=0;entryX=0.5;entryY=0;entryDx=0;entryDy=0;movable=0;resizable=0;rotatable=0;deletable=0;editable=0;locked=1;connectable=0;" edge="1" parent="1" source="9QiaCKzGw6aInTvv5w-R-170" target="9QiaCKzGw6aInTvv5w-R-181">
          <mxGeometry relative="1" as="geometry" />
        </mxCell>
        <mxCell id="9QiaCKzGw6aInTvv5w-R-170" value="" style="rounded=0;whiteSpace=wrap;html=1;movable=0;resizable=0;rotatable=0;deletable=0;editable=0;locked=1;connectable=0;" vertex="1" parent="1">
          <mxGeometry x="1940" y="120" width="120" height="40" as="geometry" />
        </mxCell>
        <mxCell id="9QiaCKzGw6aInTvv5w-R-173" value="Servidor SGA" style="text;html=1;align=center;verticalAlign=middle;whiteSpace=wrap;rounded=0;movable=0;resizable=0;rotatable=0;deletable=0;editable=0;locked=1;connectable=0;" vertex="1" parent="1">
          <mxGeometry x="1940" y="35" width="120" height="30" as="geometry" />
        </mxCell>
        <mxCell id="9QiaCKzGw6aInTvv5w-R-174" value="Firewall" style="text;html=1;align=center;verticalAlign=middle;whiteSpace=wrap;rounded=0;movable=0;resizable=0;rotatable=0;deletable=0;editable=0;locked=1;connectable=0;" vertex="1" parent="1">
          <mxGeometry x="1965" y="130" width="70" height="20" as="geometry" />
        </mxCell>
        <mxCell id="9QiaCKzGw6aInTvv5w-R-205" style="edgeStyle=orthogonalEdgeStyle;rounded=0;orthogonalLoop=1;jettySize=auto;html=1;exitX=0;exitY=0;exitDx=0;exitDy=0;entryX=1;entryY=0.5;entryDx=0;entryDy=0;fontFamily=Helvetica;fontSize=12;fontColor=default;resizable=0;movable=0;rotatable=0;deletable=0;editable=0;locked=1;connectable=0;" edge="1" parent="1" source="9QiaCKzGw6aInTvv5w-R-181" target="9QiaCKzGw6aInTvv5w-R-183">
          <mxGeometry relative="1" as="geometry">
            <Array as="points">
              <mxPoint x="1930" y="220" />
              <mxPoint x="1930" y="40" />
            </Array>
          </mxGeometry>
        </mxCell>
        <mxCell id="9QiaCKzGw6aInTvv5w-R-206" style="edgeStyle=orthogonalEdgeStyle;rounded=0;orthogonalLoop=1;jettySize=auto;html=1;exitX=0;exitY=0.25;exitDx=0;exitDy=0;entryX=1;entryY=0.5;entryDx=0;entryDy=0;fontFamily=Helvetica;fontSize=12;fontColor=default;resizable=0;movable=0;rotatable=0;deletable=0;editable=0;locked=1;connectable=0;" edge="1" parent="1" source="9QiaCKzGw6aInTvv5w-R-181" target="9QiaCKzGw6aInTvv5w-R-186">
          <mxGeometry relative="1" as="geometry">
            <Array as="points">
              <mxPoint x="1920" y="230" />
              <mxPoint x="1920" y="90" />
            </Array>
          </mxGeometry>
        </mxCell>
        <mxCell id="9QiaCKzGw6aInTvv5w-R-207" style="edgeStyle=orthogonalEdgeStyle;rounded=0;orthogonalLoop=1;jettySize=auto;html=1;exitX=0;exitY=0.5;exitDx=0;exitDy=0;entryX=1;entryY=0.5;entryDx=0;entryDy=0;fontFamily=Helvetica;fontSize=12;fontColor=default;resizable=0;movable=0;rotatable=0;deletable=0;editable=0;locked=1;connectable=0;" edge="1" parent="1" source="9QiaCKzGw6aInTvv5w-R-181" target="9QiaCKzGw6aInTvv5w-R-185">
          <mxGeometry relative="1" as="geometry">
            <Array as="points">
              <mxPoint x="1910" y="240" />
              <mxPoint x="1910" y="140" />
            </Array>
          </mxGeometry>
        </mxCell>
        <mxCell id="9QiaCKzGw6aInTvv5w-R-208" style="edgeStyle=orthogonalEdgeStyle;rounded=0;orthogonalLoop=1;jettySize=auto;html=1;exitX=0;exitY=0.75;exitDx=0;exitDy=0;entryX=1;entryY=0.5;entryDx=0;entryDy=0;fontFamily=Helvetica;fontSize=12;fontColor=default;resizable=0;movable=0;rotatable=0;deletable=0;editable=0;locked=1;connectable=0;" edge="1" parent="1" source="9QiaCKzGw6aInTvv5w-R-181" target="9QiaCKzGw6aInTvv5w-R-192">
          <mxGeometry relative="1" as="geometry" />
        </mxCell>
        <mxCell id="9QiaCKzGw6aInTvv5w-R-209" style="edgeStyle=orthogonalEdgeStyle;rounded=0;orthogonalLoop=1;jettySize=auto;html=1;exitX=0;exitY=1;exitDx=0;exitDy=0;entryX=1;entryY=0.5;entryDx=0;entryDy=0;fontFamily=Helvetica;fontSize=12;fontColor=default;resizable=0;movable=0;rotatable=0;deletable=0;editable=0;locked=1;connectable=0;" edge="1" parent="1" source="9QiaCKzGw6aInTvv5w-R-181" target="9QiaCKzGw6aInTvv5w-R-184">
          <mxGeometry relative="1" as="geometry">
            <Array as="points">
              <mxPoint x="1880" y="260" />
              <mxPoint x="1880" y="240" />
            </Array>
          </mxGeometry>
        </mxCell>
        <mxCell id="9QiaCKzGw6aInTvv5w-R-210" style="edgeStyle=orthogonalEdgeStyle;rounded=0;orthogonalLoop=1;jettySize=auto;html=1;exitX=0;exitY=1;exitDx=0;exitDy=0;entryX=1;entryY=0.5;entryDx=0;entryDy=0;fontFamily=Helvetica;fontSize=12;fontColor=default;resizable=0;movable=0;rotatable=0;deletable=0;editable=0;locked=1;connectable=0;" edge="1" parent="1" source="9QiaCKzGw6aInTvv5w-R-181" target="9QiaCKzGw6aInTvv5w-R-194">
          <mxGeometry relative="1" as="geometry" />
        </mxCell>
        <mxCell id="9QiaCKzGw6aInTvv5w-R-211" style="edgeStyle=orthogonalEdgeStyle;rounded=0;orthogonalLoop=1;jettySize=auto;html=1;exitX=0.25;exitY=1;exitDx=0;exitDy=0;entryX=1;entryY=0.5;entryDx=0;entryDy=0;fontFamily=Helvetica;fontSize=12;fontColor=default;resizable=0;movable=0;rotatable=0;deletable=0;editable=0;locked=1;connectable=0;" edge="1" parent="1" source="9QiaCKzGw6aInTvv5w-R-181" target="9QiaCKzGw6aInTvv5w-R-196">
          <mxGeometry relative="1" as="geometry" />
        </mxCell>
        <mxCell id="9QiaCKzGw6aInTvv5w-R-212" style="edgeStyle=orthogonalEdgeStyle;rounded=0;orthogonalLoop=1;jettySize=auto;html=1;exitX=0.5;exitY=1;exitDx=0;exitDy=0;entryX=1;entryY=0.5;entryDx=0;entryDy=0;fontFamily=Helvetica;fontSize=12;fontColor=default;resizable=0;movable=0;rotatable=0;deletable=0;editable=0;locked=1;connectable=0;" edge="1" parent="1" source="9QiaCKzGw6aInTvv5w-R-181" target="9QiaCKzGw6aInTvv5w-R-198">
          <mxGeometry relative="1" as="geometry" />
        </mxCell>
        <mxCell id="9QiaCKzGw6aInTvv5w-R-213" style="edgeStyle=orthogonalEdgeStyle;rounded=0;orthogonalLoop=1;jettySize=auto;html=1;exitX=1;exitY=0;exitDx=0;exitDy=0;entryX=0;entryY=0.5;entryDx=0;entryDy=0;fontFamily=Helvetica;fontSize=12;fontColor=default;resizable=0;movable=0;rotatable=0;deletable=0;editable=0;locked=1;connectable=0;" edge="1" parent="1" source="9QiaCKzGw6aInTvv5w-R-181" target="9QiaCKzGw6aInTvv5w-R-201">
          <mxGeometry relative="1" as="geometry" />
        </mxCell>
        <mxCell id="9QiaCKzGw6aInTvv5w-R-214" style="edgeStyle=orthogonalEdgeStyle;rounded=0;orthogonalLoop=1;jettySize=auto;html=1;exitX=1;exitY=1;exitDx=0;exitDy=0;entryX=0;entryY=0.5;entryDx=0;entryDy=0;fontFamily=Helvetica;fontSize=12;fontColor=default;resizable=0;movable=0;rotatable=0;deletable=0;editable=0;locked=1;connectable=0;" edge="1" parent="1" source="9QiaCKzGw6aInTvv5w-R-181" target="9QiaCKzGw6aInTvv5w-R-203">
          <mxGeometry relative="1" as="geometry" />
        </mxCell>
        <mxCell id="9QiaCKzGw6aInTvv5w-R-181" value="" style="rounded=0;whiteSpace=wrap;html=1;movable=0;resizable=0;rotatable=0;deletable=0;editable=0;locked=1;connectable=0;" vertex="1" parent="1">
          <mxGeometry x="1940" y="220" width="120" height="40" as="geometry" />
        </mxCell>
        <mxCell id="9QiaCKzGw6aInTvv5w-R-182" value="SWITCH" style="text;html=1;align=center;verticalAlign=middle;whiteSpace=wrap;rounded=0;movable=0;resizable=0;rotatable=0;deletable=0;editable=0;locked=1;connectable=0;" vertex="1" parent="1">
          <mxGeometry x="1970" y="225" width="60" height="30" as="geometry" />
        </mxCell>
        <mxCell id="9QiaCKzGw6aInTvv5w-R-183" value="" style="rounded=0;whiteSpace=wrap;html=1;movable=0;resizable=0;rotatable=0;deletable=0;editable=0;locked=1;connectable=0;" vertex="1" parent="1">
          <mxGeometry x="1730" y="20" width="120" height="40" as="geometry" />
        </mxCell>
        <mxCell id="9QiaCKzGw6aInTvv5w-R-184" value="" style="rounded=0;whiteSpace=wrap;html=1;movable=0;resizable=0;rotatable=0;deletable=0;editable=0;locked=1;connectable=0;" vertex="1" parent="1">
          <mxGeometry x="1730" y="220" width="120" height="40" as="geometry" />
        </mxCell>
        <mxCell id="9QiaCKzGw6aInTvv5w-R-185" value="" style="rounded=0;whiteSpace=wrap;html=1;movable=0;resizable=0;rotatable=0;deletable=0;editable=0;locked=1;connectable=0;" vertex="1" parent="1">
          <mxGeometry x="1730" y="120" width="120" height="40" as="geometry" />
        </mxCell>
        <mxCell id="9QiaCKzGw6aInTvv5w-R-186" value="" style="rounded=0;whiteSpace=wrap;html=1;movable=0;resizable=0;rotatable=0;deletable=0;editable=0;locked=1;connectable=0;" vertex="1" parent="1">
          <mxGeometry x="1730" y="70" width="120" height="40" as="geometry" />
        </mxCell>
        <mxCell id="9QiaCKzGw6aInTvv5w-R-187" value="Carregamento01" style="text;html=1;align=center;verticalAlign=middle;whiteSpace=wrap;rounded=0;movable=0;resizable=0;rotatable=0;deletable=0;editable=0;locked=1;connectable=0;" vertex="1" parent="1">
          <mxGeometry x="1760" y="25" width="60" height="30" as="geometry" />
        </mxCell>
        <mxCell id="9QiaCKzGw6aInTvv5w-R-188" value="Carregamento02" style="text;html=1;align=center;verticalAlign=middle;whiteSpace=wrap;rounded=0;movable=0;resizable=0;rotatable=0;deletable=0;editable=0;locked=1;connectable=0;" vertex="1" parent="1">
          <mxGeometry x="1760" y="75" width="60" height="30" as="geometry" />
        </mxCell>
        <mxCell id="9QiaCKzGw6aInTvv5w-R-189" value="Carregamento03" style="text;html=1;align=center;verticalAlign=middle;whiteSpace=wrap;rounded=0;movable=0;resizable=0;rotatable=0;deletable=0;editable=0;locked=1;connectable=0;" vertex="1" parent="1">
          <mxGeometry x="1760" y="125" width="60" height="30" as="geometry" />
        </mxCell>
        <mxCell id="9QiaCKzGw6aInTvv5w-R-190" value="Carregamento05" style="text;html=1;align=center;verticalAlign=middle;whiteSpace=wrap;rounded=0;movable=0;resizable=0;rotatable=0;deletable=0;editable=0;locked=1;connectable=0;" vertex="1" parent="1">
          <mxGeometry x="1760" y="225" width="60" height="30" as="geometry" />
        </mxCell>
        <mxCell id="9QiaCKzGw6aInTvv5w-R-192" value="" style="rounded=0;whiteSpace=wrap;html=1;movable=0;resizable=0;rotatable=0;deletable=0;editable=0;locked=1;connectable=0;" vertex="1" parent="1">
          <mxGeometry x="1730" y="170" width="120" height="40" as="geometry" />
        </mxCell>
        <mxCell id="9QiaCKzGw6aInTvv5w-R-193" value="Carregamento04" style="text;html=1;align=center;verticalAlign=middle;whiteSpace=wrap;rounded=0;movable=0;resizable=0;rotatable=0;deletable=0;editable=0;locked=1;connectable=0;" vertex="1" parent="1">
          <mxGeometry x="1760" y="175" width="60" height="30" as="geometry" />
        </mxCell>
        <mxCell id="9QiaCKzGw6aInTvv5w-R-194" value="" style="rounded=0;whiteSpace=wrap;html=1;movable=0;resizable=0;rotatable=0;deletable=0;editable=0;locked=1;connectable=0;" vertex="1" parent="1">
          <mxGeometry x="1730" y="270" width="120" height="40" as="geometry" />
        </mxCell>
        <mxCell id="9QiaCKzGw6aInTvv5w-R-195" value="Carregamento06" style="text;html=1;align=center;verticalAlign=middle;whiteSpace=wrap;rounded=0;movable=0;resizable=0;rotatable=0;deletable=0;editable=0;locked=1;connectable=0;" vertex="1" parent="1">
          <mxGeometry x="1760" y="275" width="60" height="30" as="geometry" />
        </mxCell>
        <mxCell id="9QiaCKzGw6aInTvv5w-R-196" value="" style="rounded=0;whiteSpace=wrap;html=1;movable=0;resizable=0;rotatable=0;deletable=0;editable=0;locked=1;connectable=0;" vertex="1" parent="1">
          <mxGeometry x="1730" y="320" width="120" height="40" as="geometry" />
        </mxCell>
        <mxCell id="9QiaCKzGw6aInTvv5w-R-197" value="Carregamento07" style="text;html=1;align=center;verticalAlign=middle;whiteSpace=wrap;rounded=0;movable=0;resizable=0;rotatable=0;deletable=0;editable=0;locked=1;connectable=0;" vertex="1" parent="1">
          <mxGeometry x="1760" y="325" width="60" height="30" as="geometry" />
        </mxCell>
        <mxCell id="9QiaCKzGw6aInTvv5w-R-198" value="" style="rounded=0;whiteSpace=wrap;html=1;movable=0;resizable=0;rotatable=0;deletable=0;editable=0;locked=1;connectable=0;" vertex="1" parent="1">
          <mxGeometry x="1730" y="370" width="120" height="40" as="geometry" />
        </mxCell>
        <mxCell id="9QiaCKzGw6aInTvv5w-R-199" value="Carregamento08" style="text;html=1;align=center;verticalAlign=middle;whiteSpace=wrap;rounded=0;movable=0;resizable=0;rotatable=0;deletable=0;editable=0;locked=1;connectable=0;" vertex="1" parent="1">
          <mxGeometry x="1760" y="375" width="60" height="30" as="geometry" />
        </mxCell>
        <mxCell id="9QiaCKzGw6aInTvv5w-R-201" value="" style="rounded=0;whiteSpace=wrap;html=1;movable=0;resizable=0;rotatable=0;deletable=0;editable=0;locked=1;connectable=0;" vertex="1" parent="1">
          <mxGeometry x="2130" y="180" width="120" height="40" as="geometry" />
        </mxCell>
        <mxCell id="9QiaCKzGw6aInTvv5w-R-202" value="TST01" style="text;html=1;align=center;verticalAlign=middle;whiteSpace=wrap;rounded=0;movable=0;resizable=0;rotatable=0;deletable=0;editable=0;locked=1;connectable=0;" vertex="1" parent="1">
          <mxGeometry x="2160" y="185" width="60" height="30" as="geometry" />
        </mxCell>
        <mxCell id="9QiaCKzGw6aInTvv5w-R-203" value="" style="rounded=0;whiteSpace=wrap;html=1;movable=0;resizable=0;rotatable=0;deletable=0;editable=0;locked=1;connectable=0;" vertex="1" parent="1">
          <mxGeometry x="2130" y="260" width="120" height="40" as="geometry" />
        </mxCell>
        <mxCell id="9QiaCKzGw6aInTvv5w-R-204" value="TST02" style="text;html=1;align=center;verticalAlign=middle;whiteSpace=wrap;rounded=0;movable=0;resizable=0;rotatable=0;deletable=0;editable=0;locked=1;connectable=0;" vertex="1" parent="1">
          <mxGeometry x="2160" y="265" width="60" height="30" as="geometry" />
        </mxCell>
        <mxCell id="9QiaCKzGw6aInTvv5w-R-215" value="" style="rounded=0;whiteSpace=wrap;html=1;movable=0;resizable=0;rotatable=0;deletable=0;editable=0;locked=1;connectable=0;" vertex="1" parent="1">
          <mxGeometry x="2480" width="640" height="440" as="geometry" />
        </mxCell>
        <mxCell id="9QiaCKzGw6aInTvv5w-R-216" value="Filial(Itajai)" style="text;html=1;align=center;verticalAlign=middle;whiteSpace=wrap;rounded=0;fontSize=29;movable=0;resizable=0;rotatable=0;deletable=0;editable=0;locked=1;connectable=0;" vertex="1" parent="1">
          <mxGeometry x="2480" y="440" width="640" height="30" as="geometry" />
        </mxCell>
        <mxCell id="9QiaCKzGw6aInTvv5w-R-221" style="edgeStyle=orthogonalEdgeStyle;rounded=0;orthogonalLoop=1;jettySize=auto;html=1;exitX=0.5;exitY=1;exitDx=0;exitDy=0;entryX=0.5;entryY=0;entryDx=0;entryDy=0;movable=0;resizable=0;rotatable=0;deletable=0;editable=0;locked=1;connectable=0;" edge="1" parent="1" source="9QiaCKzGw6aInTvv5w-R-222" target="9QiaCKzGw6aInTvv5w-R-233">
          <mxGeometry relative="1" as="geometry" />
        </mxCell>
        <mxCell id="9QiaCKzGw6aInTvv5w-R-222" value="" style="rounded=0;whiteSpace=wrap;html=1;movable=0;resizable=0;rotatable=0;deletable=0;editable=0;locked=1;connectable=0;" vertex="1" parent="1">
          <mxGeometry x="2735" y="35" width="120" height="40" as="geometry" />
        </mxCell>
        <mxCell id="9QiaCKzGw6aInTvv5w-R-226" value="Firewall" style="text;html=1;align=center;verticalAlign=middle;whiteSpace=wrap;rounded=0;movable=0;resizable=0;rotatable=0;deletable=0;editable=0;locked=1;connectable=0;" vertex="1" parent="1">
          <mxGeometry x="2760" y="45" width="70" height="20" as="geometry" />
        </mxCell>
        <mxCell id="9QiaCKzGw6aInTvv5w-R-229" style="edgeStyle=orthogonalEdgeStyle;rounded=0;orthogonalLoop=1;jettySize=auto;html=1;exitX=0;exitY=0.5;exitDx=0;exitDy=0;entryX=1;entryY=0.5;entryDx=0;entryDy=0;movable=0;resizable=0;rotatable=0;deletable=0;editable=0;locked=1;connectable=0;" edge="1" parent="1" source="9QiaCKzGw6aInTvv5w-R-233" target="9QiaCKzGw6aInTvv5w-R-235">
          <mxGeometry relative="1" as="geometry" />
        </mxCell>
        <mxCell id="9QiaCKzGw6aInTvv5w-R-231" style="edgeStyle=orthogonalEdgeStyle;rounded=0;orthogonalLoop=1;jettySize=auto;html=1;entryX=0;entryY=0.5;entryDx=0;entryDy=0;movable=0;resizable=0;rotatable=0;deletable=0;editable=0;locked=1;connectable=0;exitX=1;exitY=0.5;exitDx=0;exitDy=0;" edge="1" parent="1" source="9QiaCKzGw6aInTvv5w-R-233" target="9QiaCKzGw6aInTvv5w-R-237">
          <mxGeometry relative="1" as="geometry">
            <mxPoint x="2860" y="260" as="sourcePoint" />
          </mxGeometry>
        </mxCell>
        <mxCell id="9QiaCKzGw6aInTvv5w-R-233" value="" style="rounded=0;whiteSpace=wrap;html=1;movable=0;resizable=0;rotatable=0;deletable=0;editable=0;locked=1;connectable=0;" vertex="1" parent="1">
          <mxGeometry x="2735" y="240" width="120" height="40" as="geometry" />
        </mxCell>
        <mxCell id="9QiaCKzGw6aInTvv5w-R-234" value="SWITCH" style="text;html=1;align=center;verticalAlign=middle;whiteSpace=wrap;rounded=0;movable=0;resizable=0;rotatable=0;deletable=0;editable=0;locked=1;connectable=0;" vertex="1" parent="1">
          <mxGeometry x="2765" y="245" width="60" height="30" as="geometry" />
        </mxCell>
        <mxCell id="9QiaCKzGw6aInTvv5w-R-235" value="" style="rounded=0;whiteSpace=wrap;html=1;movable=0;resizable=0;rotatable=0;deletable=0;editable=0;locked=1;connectable=0;" vertex="1" parent="1">
          <mxGeometry x="2520" y="240" width="120" height="40" as="geometry" />
        </mxCell>
        <mxCell id="9QiaCKzGw6aInTvv5w-R-237" value="" style="rounded=0;whiteSpace=wrap;html=1;movable=0;resizable=0;rotatable=0;deletable=0;editable=0;locked=1;connectable=0;" vertex="1" parent="1">
          <mxGeometry x="2970" y="240" width="120" height="40" as="geometry" />
        </mxCell>
        <mxCell id="9QiaCKzGw6aInTvv5w-R-239" value="Faturamento" style="text;html=1;align=center;verticalAlign=middle;whiteSpace=wrap;rounded=0;movable=0;resizable=0;rotatable=0;deletable=0;editable=0;locked=1;connectable=0;" vertex="1" parent="1">
          <mxGeometry x="2550" y="245" width="60" height="30" as="geometry" />
        </mxCell>
        <mxCell id="9QiaCKzGw6aInTvv5w-R-241" value="Maquina reserva" style="text;html=1;align=center;verticalAlign=middle;whiteSpace=wrap;rounded=0;movable=0;resizable=0;rotatable=0;deletable=0;editable=0;locked=1;connectable=0;" vertex="1" parent="1">
          <mxGeometry x="3000" y="245" width="60" height="30" as="geometry" />
        </mxCell>
        <mxCell id="9QiaCKzGw6aInTvv5w-R-243" value="" style="rounded=0;whiteSpace=wrap;html=1;movable=0;resizable=0;rotatable=0;deletable=0;editable=0;locked=1;connectable=0;" vertex="1" parent="1">
          <mxGeometry x="80" y="630" width="640" height="440" as="geometry" />
        </mxCell>
        <mxCell id="9QiaCKzGw6aInTvv5w-R-244" value="Posto Foxx" style="text;html=1;align=center;verticalAlign=middle;whiteSpace=wrap;rounded=0;fontSize=29;movable=1;resizable=1;rotatable=1;deletable=1;editable=1;locked=0;connectable=1;" vertex="1" parent="1">
          <mxGeometry x="80" y="1070" width="640" height="30" as="geometry" />
        </mxCell>
        <mxCell id="9QiaCKzGw6aInTvv5w-R-245" value="" style="rounded=0;whiteSpace=wrap;html=1;movable=1;resizable=1;rotatable=1;deletable=1;editable=1;locked=0;connectable=1;" vertex="1" parent="1">
          <mxGeometry x="335" y="680" width="120" height="40" as="geometry" />
        </mxCell>
        <mxCell id="9QiaCKzGw6aInTvv5w-R-246" style="edgeStyle=orthogonalEdgeStyle;rounded=0;orthogonalLoop=1;jettySize=auto;html=1;exitX=1;exitY=0.5;exitDx=0;exitDy=0;entryX=0.5;entryY=1;entryDx=0;entryDy=0;movable=1;resizable=1;rotatable=1;deletable=1;editable=1;locked=0;connectable=1;" edge="1" parent="1" source="9QiaCKzGw6aInTvv5w-R-250" target="9QiaCKzGw6aInTvv5w-R-252">
          <mxGeometry relative="1" as="geometry" />
        </mxCell>
        <mxCell id="9QiaCKzGw6aInTvv5w-R-247" style="edgeStyle=orthogonalEdgeStyle;rounded=0;orthogonalLoop=1;jettySize=auto;html=1;exitX=0.5;exitY=0;exitDx=0;exitDy=0;entryX=0.5;entryY=1;entryDx=0;entryDy=0;movable=1;resizable=1;rotatable=1;deletable=1;editable=1;locked=0;connectable=1;" edge="1" parent="1" source="9QiaCKzGw6aInTvv5w-R-250" target="9QiaCKzGw6aInTvv5w-R-253">
          <mxGeometry relative="1" as="geometry" />
        </mxCell>
        <mxCell id="9QiaCKzGw6aInTvv5w-R-248" style="edgeStyle=orthogonalEdgeStyle;rounded=0;orthogonalLoop=1;jettySize=auto;html=1;exitX=0;exitY=0.5;exitDx=0;exitDy=0;entryX=0.5;entryY=1;entryDx=0;entryDy=0;movable=1;resizable=1;rotatable=1;deletable=1;editable=1;locked=0;connectable=1;" edge="1" parent="1" source="9QiaCKzGw6aInTvv5w-R-250" target="9QiaCKzGw6aInTvv5w-R-251">
          <mxGeometry relative="1" as="geometry" />
        </mxCell>
        <mxCell id="9QiaCKzGw6aInTvv5w-R-249" style="edgeStyle=orthogonalEdgeStyle;rounded=0;orthogonalLoop=1;jettySize=auto;html=1;exitX=0.5;exitY=1;exitDx=0;exitDy=0;entryX=0.5;entryY=0;entryDx=0;entryDy=0;movable=1;resizable=1;rotatable=1;deletable=1;editable=1;locked=0;connectable=1;" edge="1" parent="1" source="9QiaCKzGw6aInTvv5w-R-250" target="9QiaCKzGw6aInTvv5w-R-261">
          <mxGeometry relative="1" as="geometry" />
        </mxCell>
        <mxCell id="9QiaCKzGw6aInTvv5w-R-250" value="" style="rounded=0;whiteSpace=wrap;html=1;movable=1;resizable=1;rotatable=1;deletable=1;editable=1;locked=0;connectable=1;" vertex="1" parent="1">
          <mxGeometry x="335" y="770" width="120" height="40" as="geometry" />
        </mxCell>
        <mxCell id="9QiaCKzGw6aInTvv5w-R-251" value="" style="rounded=0;whiteSpace=wrap;html=1;movable=1;resizable=1;rotatable=1;deletable=1;editable=1;locked=0;connectable=1;" vertex="1" parent="1">
          <mxGeometry x="120" y="680" width="120" height="40" as="geometry" />
        </mxCell>
        <mxCell id="9QiaCKzGw6aInTvv5w-R-252" value="" style="rounded=0;whiteSpace=wrap;html=1;movable=1;resizable=1;rotatable=1;deletable=1;editable=1;locked=0;connectable=1;" vertex="1" parent="1">
          <mxGeometry x="570" y="680" width="120" height="40" as="geometry" />
        </mxCell>
        <mxCell id="9QiaCKzGw6aInTvv5w-R-253" value="Servidor Central" style="text;html=1;align=center;verticalAlign=middle;whiteSpace=wrap;rounded=0;movable=1;resizable=1;rotatable=1;deletable=1;editable=1;locked=0;connectable=1;" vertex="1" parent="1">
          <mxGeometry x="335" y="685" width="120" height="30" as="geometry" />
        </mxCell>
        <mxCell id="9QiaCKzGw6aInTvv5w-R-254" value="Firewall" style="text;html=1;align=center;verticalAlign=middle;whiteSpace=wrap;rounded=0;movable=1;resizable=1;rotatable=1;deletable=1;editable=1;locked=0;connectable=1;" vertex="1" parent="1">
          <mxGeometry x="360" y="780" width="70" height="20" as="geometry" />
        </mxCell>
        <mxCell id="9QiaCKzGw6aInTvv5w-R-255" value="ServidorBI" style="text;html=1;align=center;verticalAlign=middle;whiteSpace=wrap;rounded=0;movable=1;resizable=1;rotatable=1;deletable=1;editable=1;locked=0;connectable=1;" vertex="1" parent="1">
          <mxGeometry x="120" y="685" width="120" height="30" as="geometry" />
        </mxCell>
        <mxCell id="9QiaCKzGw6aInTvv5w-R-256" value="Servidor(Replica)" style="text;html=1;align=center;verticalAlign=middle;whiteSpace=wrap;rounded=0;movable=1;resizable=1;rotatable=1;deletable=1;editable=1;locked=0;connectable=1;" vertex="1" parent="1">
          <mxGeometry x="570" y="685" width="120" height="30" as="geometry" />
        </mxCell>
        <mxCell id="9QiaCKzGw6aInTvv5w-R-257" style="edgeStyle=orthogonalEdgeStyle;rounded=0;orthogonalLoop=1;jettySize=auto;html=1;exitX=0;exitY=0.25;exitDx=0;exitDy=0;entryX=1;entryY=0.5;entryDx=0;entryDy=0;movable=1;resizable=1;rotatable=1;deletable=1;editable=1;locked=0;connectable=1;" edge="1" parent="1" source="9QiaCKzGw6aInTvv5w-R-261" target="9QiaCKzGw6aInTvv5w-R-263">
          <mxGeometry relative="1" as="geometry" />
        </mxCell>
        <mxCell id="9QiaCKzGw6aInTvv5w-R-258" style="edgeStyle=orthogonalEdgeStyle;rounded=0;orthogonalLoop=1;jettySize=auto;html=1;exitX=0;exitY=0.75;exitDx=0;exitDy=0;entryX=1;entryY=0.5;entryDx=0;entryDy=0;movable=1;resizable=1;rotatable=1;deletable=1;editable=1;locked=0;connectable=1;" edge="1" parent="1" source="9QiaCKzGw6aInTvv5w-R-261" target="9QiaCKzGw6aInTvv5w-R-266">
          <mxGeometry relative="1" as="geometry" />
        </mxCell>
        <mxCell id="9QiaCKzGw6aInTvv5w-R-259" style="edgeStyle=orthogonalEdgeStyle;rounded=0;orthogonalLoop=1;jettySize=auto;html=1;exitX=1;exitY=0.25;exitDx=0;exitDy=0;entryX=0;entryY=0.5;entryDx=0;entryDy=0;movable=1;resizable=1;rotatable=1;deletable=1;editable=1;locked=0;connectable=1;" edge="1" parent="1" source="9QiaCKzGw6aInTvv5w-R-261" target="9QiaCKzGw6aInTvv5w-R-265">
          <mxGeometry relative="1" as="geometry" />
        </mxCell>
        <mxCell id="9QiaCKzGw6aInTvv5w-R-260" style="edgeStyle=orthogonalEdgeStyle;rounded=0;orthogonalLoop=1;jettySize=auto;html=1;exitX=1;exitY=0.75;exitDx=0;exitDy=0;entryX=0;entryY=0.5;entryDx=0;entryDy=0;movable=1;resizable=1;rotatable=1;deletable=1;editable=1;locked=0;connectable=1;" edge="1" parent="1" source="9QiaCKzGw6aInTvv5w-R-261" target="9QiaCKzGw6aInTvv5w-R-264">
          <mxGeometry relative="1" as="geometry" />
        </mxCell>
        <mxCell id="9QiaCKzGw6aInTvv5w-R-359" style="edgeStyle=orthogonalEdgeStyle;rounded=0;orthogonalLoop=1;jettySize=auto;html=1;exitX=0.75;exitY=1;exitDx=0;exitDy=0;entryX=0;entryY=0.5;entryDx=0;entryDy=0;fontFamily=Helvetica;fontSize=12;fontColor=default;resizable=1;" edge="1" parent="1" source="9QiaCKzGw6aInTvv5w-R-261" target="9QiaCKzGw6aInTvv5w-R-357">
          <mxGeometry relative="1" as="geometry" />
        </mxCell>
        <mxCell id="9QiaCKzGw6aInTvv5w-R-360" style="edgeStyle=orthogonalEdgeStyle;rounded=0;orthogonalLoop=1;jettySize=auto;html=1;exitX=0.25;exitY=1;exitDx=0;exitDy=0;entryX=1;entryY=0.5;entryDx=0;entryDy=0;fontFamily=Helvetica;fontSize=12;fontColor=default;resizable=1;" edge="1" parent="1" source="9QiaCKzGw6aInTvv5w-R-261" target="9QiaCKzGw6aInTvv5w-R-355">
          <mxGeometry relative="1" as="geometry" />
        </mxCell>
        <mxCell id="9QiaCKzGw6aInTvv5w-R-261" value="" style="rounded=0;whiteSpace=wrap;html=1;movable=1;resizable=1;rotatable=1;deletable=1;editable=1;locked=0;connectable=1;" vertex="1" parent="1">
          <mxGeometry x="335" y="870" width="120" height="40" as="geometry" />
        </mxCell>
        <mxCell id="9QiaCKzGw6aInTvv5w-R-262" value="SWITCH" style="text;html=1;align=center;verticalAlign=middle;whiteSpace=wrap;rounded=0;movable=0;resizable=0;rotatable=0;deletable=0;editable=0;locked=1;connectable=0;" vertex="1" parent="1">
          <mxGeometry x="365" y="875" width="60" height="30" as="geometry" />
        </mxCell>
        <mxCell id="9QiaCKzGw6aInTvv5w-R-263" value="" style="rounded=0;whiteSpace=wrap;html=1;movable=1;resizable=1;rotatable=1;deletable=1;editable=1;locked=0;connectable=1;" vertex="1" parent="1">
          <mxGeometry x="120" y="830" width="120" height="40" as="geometry" />
        </mxCell>
        <mxCell id="9QiaCKzGw6aInTvv5w-R-264" value="" style="rounded=0;whiteSpace=wrap;html=1;movable=1;resizable=1;rotatable=1;deletable=1;editable=1;locked=0;connectable=1;" vertex="1" parent="1">
          <mxGeometry x="570" y="920" width="120" height="40" as="geometry" />
        </mxCell>
        <mxCell id="9QiaCKzGw6aInTvv5w-R-265" value="" style="rounded=0;whiteSpace=wrap;html=1;movable=1;resizable=1;rotatable=1;deletable=1;editable=1;locked=0;connectable=1;" vertex="1" parent="1">
          <mxGeometry x="570" y="830" width="120" height="40" as="geometry" />
        </mxCell>
        <mxCell id="9QiaCKzGw6aInTvv5w-R-266" value="" style="rounded=0;whiteSpace=wrap;html=1;movable=1;resizable=1;rotatable=1;deletable=1;editable=1;locked=0;connectable=1;" vertex="1" parent="1">
          <mxGeometry x="120" y="920" width="120" height="40" as="geometry" />
        </mxCell>
        <mxCell id="9QiaCKzGw6aInTvv5w-R-267" value="Caixa01" style="text;html=1;align=center;verticalAlign=middle;whiteSpace=wrap;rounded=0;movable=1;resizable=1;rotatable=1;deletable=1;editable=1;locked=0;connectable=1;" vertex="1" parent="1">
          <mxGeometry x="150" y="835" width="60" height="30" as="geometry" />
        </mxCell>
        <mxCell id="9QiaCKzGw6aInTvv5w-R-268" value="Caixa02" style="text;html=1;align=center;verticalAlign=middle;whiteSpace=wrap;rounded=0;movable=1;resizable=1;rotatable=1;deletable=1;editable=1;locked=0;connectable=1;" vertex="1" parent="1">
          <mxGeometry x="150" y="925" width="60" height="30" as="geometry" />
        </mxCell>
        <mxCell id="9QiaCKzGw6aInTvv5w-R-269" value="Compras" style="text;html=1;align=center;verticalAlign=middle;whiteSpace=wrap;rounded=0;movable=1;resizable=1;rotatable=1;deletable=1;editable=1;locked=0;connectable=1;" vertex="1" parent="1">
          <mxGeometry x="600" y="835" width="60" height="30" as="geometry" />
        </mxCell>
        <mxCell id="9QiaCKzGw6aInTvv5w-R-270" value="Fiscal Postos" style="text;html=1;align=center;verticalAlign=middle;whiteSpace=wrap;rounded=0;movable=1;resizable=1;rotatable=1;deletable=1;editable=1;locked=0;connectable=1;" vertex="1" parent="1">
          <mxGeometry x="600" y="925" width="60" height="30" as="geometry" />
        </mxCell>
        <mxCell id="9QiaCKzGw6aInTvv5w-R-271" value="" style="rounded=0;whiteSpace=wrap;html=1;movable=1;resizable=1;rotatable=1;deletable=1;editable=1;locked=0;connectable=1;" vertex="1" parent="1">
          <mxGeometry x="880" y="645" width="640" height="440" as="geometry" />
        </mxCell>
        <mxCell id="9QiaCKzGw6aInTvv5w-R-272" value="Posto Pampa" style="text;html=1;align=center;verticalAlign=middle;whiteSpace=wrap;rounded=0;fontSize=29;movable=1;resizable=1;rotatable=1;deletable=1;editable=1;locked=0;connectable=1;" vertex="1" parent="1">
          <mxGeometry x="880" y="1085" width="640" height="30" as="geometry" />
        </mxCell>
        <mxCell id="9QiaCKzGw6aInTvv5w-R-273" value="" style="rounded=0;whiteSpace=wrap;html=1;movable=1;resizable=1;rotatable=1;deletable=1;editable=1;locked=0;connectable=1;" vertex="1" parent="1">
          <mxGeometry x="1135" y="695" width="120" height="40" as="geometry" />
        </mxCell>
        <mxCell id="9QiaCKzGw6aInTvv5w-R-275" style="edgeStyle=orthogonalEdgeStyle;rounded=0;orthogonalLoop=1;jettySize=auto;html=1;exitX=0.5;exitY=0;exitDx=0;exitDy=0;entryX=0.5;entryY=1;entryDx=0;entryDy=0;movable=1;resizable=1;rotatable=1;deletable=1;editable=1;locked=0;connectable=1;" edge="1" parent="1" source="9QiaCKzGw6aInTvv5w-R-278" target="9QiaCKzGw6aInTvv5w-R-281">
          <mxGeometry relative="1" as="geometry" />
        </mxCell>
        <mxCell id="9QiaCKzGw6aInTvv5w-R-277" style="edgeStyle=orthogonalEdgeStyle;rounded=0;orthogonalLoop=1;jettySize=auto;html=1;exitX=0.5;exitY=1;exitDx=0;exitDy=0;entryX=0.5;entryY=0;entryDx=0;entryDy=0;movable=1;resizable=1;rotatable=1;deletable=1;editable=1;locked=0;connectable=1;" edge="1" parent="1" source="9QiaCKzGw6aInTvv5w-R-278" target="9QiaCKzGw6aInTvv5w-R-289">
          <mxGeometry relative="1" as="geometry" />
        </mxCell>
        <mxCell id="9QiaCKzGw6aInTvv5w-R-278" value="" style="rounded=0;whiteSpace=wrap;html=1;movable=1;resizable=1;rotatable=1;deletable=1;editable=1;locked=0;connectable=1;" vertex="1" parent="1">
          <mxGeometry x="1135" y="785" width="120" height="40" as="geometry" />
        </mxCell>
        <mxCell id="9QiaCKzGw6aInTvv5w-R-281" value="Servidor Posto" style="text;html=1;align=center;verticalAlign=middle;whiteSpace=wrap;rounded=0;movable=1;resizable=1;rotatable=1;deletable=1;editable=1;locked=0;connectable=1;" vertex="1" parent="1">
          <mxGeometry x="1135" y="700" width="120" height="30" as="geometry" />
        </mxCell>
        <mxCell id="9QiaCKzGw6aInTvv5w-R-282" value="Firewall" style="text;html=1;align=center;verticalAlign=middle;whiteSpace=wrap;rounded=0;movable=1;resizable=1;rotatable=1;deletable=1;editable=1;locked=0;connectable=1;" vertex="1" parent="1">
          <mxGeometry x="1160" y="795" width="70" height="20" as="geometry" />
        </mxCell>
        <mxCell id="9QiaCKzGw6aInTvv5w-R-285" style="edgeStyle=orthogonalEdgeStyle;rounded=0;orthogonalLoop=1;jettySize=auto;html=1;exitX=0;exitY=0.25;exitDx=0;exitDy=0;entryX=1;entryY=0.5;entryDx=0;entryDy=0;movable=1;resizable=1;rotatable=1;deletable=1;editable=1;locked=0;connectable=1;" edge="1" parent="1" source="9QiaCKzGw6aInTvv5w-R-289" target="9QiaCKzGw6aInTvv5w-R-291">
          <mxGeometry relative="1" as="geometry" />
        </mxCell>
        <mxCell id="9QiaCKzGw6aInTvv5w-R-286" style="edgeStyle=orthogonalEdgeStyle;rounded=0;orthogonalLoop=1;jettySize=auto;html=1;exitX=0;exitY=0.75;exitDx=0;exitDy=0;entryX=1;entryY=0.5;entryDx=0;entryDy=0;movable=1;resizable=1;rotatable=1;deletable=1;editable=1;locked=0;connectable=1;" edge="1" parent="1" source="9QiaCKzGw6aInTvv5w-R-289" target="9QiaCKzGw6aInTvv5w-R-294">
          <mxGeometry relative="1" as="geometry" />
        </mxCell>
        <mxCell id="9QiaCKzGw6aInTvv5w-R-287" style="edgeStyle=orthogonalEdgeStyle;rounded=0;orthogonalLoop=1;jettySize=auto;html=1;exitX=1;exitY=0.25;exitDx=0;exitDy=0;entryX=0;entryY=0.5;entryDx=0;entryDy=0;movable=1;resizable=1;rotatable=1;deletable=1;editable=1;locked=0;connectable=1;" edge="1" parent="1" source="9QiaCKzGw6aInTvv5w-R-289" target="9QiaCKzGw6aInTvv5w-R-293">
          <mxGeometry relative="1" as="geometry" />
        </mxCell>
        <mxCell id="9QiaCKzGw6aInTvv5w-R-288" style="edgeStyle=orthogonalEdgeStyle;rounded=0;orthogonalLoop=1;jettySize=auto;html=1;exitX=1;exitY=0.75;exitDx=0;exitDy=0;entryX=0;entryY=0.5;entryDx=0;entryDy=0;movable=1;resizable=1;rotatable=1;deletable=1;editable=1;locked=0;connectable=1;" edge="1" parent="1" source="9QiaCKzGw6aInTvv5w-R-289" target="9QiaCKzGw6aInTvv5w-R-292">
          <mxGeometry relative="1" as="geometry" />
        </mxCell>
        <mxCell id="9QiaCKzGw6aInTvv5w-R-289" value="" style="rounded=0;whiteSpace=wrap;html=1;movable=1;resizable=1;rotatable=1;deletable=1;editable=1;locked=0;connectable=1;" vertex="1" parent="1">
          <mxGeometry x="1135" y="885" width="120" height="40" as="geometry" />
        </mxCell>
        <mxCell id="9QiaCKzGw6aInTvv5w-R-290" value="SWITCH" style="text;html=1;align=center;verticalAlign=middle;whiteSpace=wrap;rounded=0;movable=1;resizable=1;rotatable=1;deletable=1;editable=1;locked=0;connectable=1;" vertex="1" parent="1">
          <mxGeometry x="1165" y="890" width="60" height="30" as="geometry" />
        </mxCell>
        <mxCell id="9QiaCKzGw6aInTvv5w-R-291" value="" style="rounded=0;whiteSpace=wrap;html=1;movable=1;resizable=1;rotatable=1;deletable=1;editable=1;locked=0;connectable=1;" vertex="1" parent="1">
          <mxGeometry x="920" y="845" width="120" height="40" as="geometry" />
        </mxCell>
        <mxCell id="9QiaCKzGw6aInTvv5w-R-292" value="" style="rounded=0;whiteSpace=wrap;html=1;movable=1;resizable=1;rotatable=1;deletable=1;editable=1;locked=0;connectable=1;" vertex="1" parent="1">
          <mxGeometry x="1370" y="935" width="120" height="40" as="geometry" />
        </mxCell>
        <mxCell id="9QiaCKzGw6aInTvv5w-R-293" value="" style="rounded=0;whiteSpace=wrap;html=1;movable=1;resizable=1;rotatable=1;deletable=1;editable=1;locked=0;connectable=1;" vertex="1" parent="1">
          <mxGeometry x="1370" y="845" width="120" height="40" as="geometry" />
        </mxCell>
        <mxCell id="9QiaCKzGw6aInTvv5w-R-294" value="" style="rounded=0;whiteSpace=wrap;html=1;movable=1;resizable=1;rotatable=1;deletable=1;editable=1;locked=0;connectable=1;" vertex="1" parent="1">
          <mxGeometry x="920" y="935" width="120" height="40" as="geometry" />
        </mxCell>
        <mxCell id="9QiaCKzGw6aInTvv5w-R-295" value="Caixa01" style="text;html=1;align=center;verticalAlign=middle;whiteSpace=wrap;rounded=0;movable=1;resizable=1;rotatable=1;deletable=1;editable=1;locked=0;connectable=1;" vertex="1" parent="1">
          <mxGeometry x="950" y="850" width="60" height="30" as="geometry" />
        </mxCell>
        <mxCell id="9QiaCKzGw6aInTvv5w-R-296" value="Caixa02" style="text;html=1;align=center;verticalAlign=middle;whiteSpace=wrap;rounded=0;movable=1;resizable=1;rotatable=1;deletable=1;editable=1;locked=0;connectable=1;" vertex="1" parent="1">
          <mxGeometry x="950" y="940" width="60" height="30" as="geometry" />
        </mxCell>
        <mxCell id="9QiaCKzGw6aInTvv5w-R-297" value="Contabilidade" style="text;html=1;align=center;verticalAlign=middle;whiteSpace=wrap;rounded=0;movable=1;resizable=1;rotatable=1;deletable=1;editable=1;locked=0;connectable=1;" vertex="1" parent="1">
          <mxGeometry x="1400" y="850" width="60" height="30" as="geometry" />
        </mxCell>
        <mxCell id="9QiaCKzGw6aInTvv5w-R-298" value="T.I" style="text;html=1;align=center;verticalAlign=middle;whiteSpace=wrap;rounded=0;movable=1;resizable=1;rotatable=1;deletable=1;editable=1;locked=0;connectable=1;" vertex="1" parent="1">
          <mxGeometry x="1400" y="940" width="60" height="30" as="geometry" />
        </mxCell>
        <mxCell id="9QiaCKzGw6aInTvv5w-R-299" value="" style="rounded=0;whiteSpace=wrap;html=1;movable=1;resizable=1;rotatable=1;deletable=1;editable=1;locked=0;connectable=1;" vertex="1" parent="1">
          <mxGeometry x="1680" y="645" width="640" height="440" as="geometry" />
        </mxCell>
        <mxCell id="9QiaCKzGw6aInTvv5w-R-300" value="Matriz (Cascavel)" style="text;html=1;align=center;verticalAlign=middle;whiteSpace=wrap;rounded=0;fontSize=29;movable=1;resizable=1;rotatable=1;deletable=1;editable=1;locked=0;connectable=1;" vertex="1" parent="1">
          <mxGeometry x="1680" y="1085" width="640" height="30" as="geometry" />
        </mxCell>
        <mxCell id="9QiaCKzGw6aInTvv5w-R-301" value="" style="rounded=0;whiteSpace=wrap;html=1;movable=1;resizable=1;rotatable=1;deletable=1;editable=1;locked=0;connectable=1;" vertex="1" parent="1">
          <mxGeometry x="1935" y="695" width="120" height="40" as="geometry" />
        </mxCell>
        <mxCell id="9QiaCKzGw6aInTvv5w-R-302" style="edgeStyle=orthogonalEdgeStyle;rounded=0;orthogonalLoop=1;jettySize=auto;html=1;exitX=1;exitY=0.5;exitDx=0;exitDy=0;entryX=0.5;entryY=1;entryDx=0;entryDy=0;movable=1;resizable=1;rotatable=1;deletable=1;editable=1;locked=0;connectable=1;" edge="1" parent="1" source="9QiaCKzGw6aInTvv5w-R-306" target="9QiaCKzGw6aInTvv5w-R-308">
          <mxGeometry relative="1" as="geometry" />
        </mxCell>
        <mxCell id="9QiaCKzGw6aInTvv5w-R-303" style="edgeStyle=orthogonalEdgeStyle;rounded=0;orthogonalLoop=1;jettySize=auto;html=1;exitX=0.5;exitY=0;exitDx=0;exitDy=0;entryX=0.5;entryY=1;entryDx=0;entryDy=0;movable=1;resizable=1;rotatable=1;deletable=1;editable=1;locked=0;connectable=1;" edge="1" parent="1" source="9QiaCKzGw6aInTvv5w-R-306" target="9QiaCKzGw6aInTvv5w-R-309">
          <mxGeometry relative="1" as="geometry" />
        </mxCell>
        <mxCell id="9QiaCKzGw6aInTvv5w-R-304" style="edgeStyle=orthogonalEdgeStyle;rounded=0;orthogonalLoop=1;jettySize=auto;html=1;exitX=0;exitY=0.5;exitDx=0;exitDy=0;entryX=0.5;entryY=1;entryDx=0;entryDy=0;movable=1;resizable=1;rotatable=1;deletable=1;editable=1;locked=0;connectable=1;" edge="1" parent="1" source="9QiaCKzGw6aInTvv5w-R-306" target="9QiaCKzGw6aInTvv5w-R-307">
          <mxGeometry relative="1" as="geometry" />
        </mxCell>
        <mxCell id="9QiaCKzGw6aInTvv5w-R-305" style="edgeStyle=orthogonalEdgeStyle;rounded=0;orthogonalLoop=1;jettySize=auto;html=1;exitX=0.5;exitY=1;exitDx=0;exitDy=0;entryX=0.5;entryY=0;entryDx=0;entryDy=0;movable=1;resizable=1;rotatable=1;deletable=1;editable=1;locked=0;connectable=1;" edge="1" parent="1" source="9QiaCKzGw6aInTvv5w-R-306" target="9QiaCKzGw6aInTvv5w-R-317">
          <mxGeometry relative="1" as="geometry" />
        </mxCell>
        <mxCell id="9QiaCKzGw6aInTvv5w-R-306" value="" style="rounded=0;whiteSpace=wrap;html=1;movable=1;resizable=1;rotatable=1;deletable=1;editable=1;locked=0;connectable=1;" vertex="1" parent="1">
          <mxGeometry x="1935" y="785" width="120" height="40" as="geometry" />
        </mxCell>
        <mxCell id="9QiaCKzGw6aInTvv5w-R-307" value="" style="rounded=0;whiteSpace=wrap;html=1;movable=1;resizable=1;rotatable=1;deletable=1;editable=1;locked=0;connectable=1;" vertex="1" parent="1">
          <mxGeometry x="1720" y="695" width="120" height="40" as="geometry" />
        </mxCell>
        <mxCell id="9QiaCKzGw6aInTvv5w-R-308" value="" style="rounded=0;whiteSpace=wrap;html=1;movable=1;resizable=1;rotatable=1;deletable=1;editable=1;locked=0;connectable=1;" vertex="1" parent="1">
          <mxGeometry x="2170" y="695" width="120" height="40" as="geometry" />
        </mxCell>
        <mxCell id="9QiaCKzGw6aInTvv5w-R-309" value="Servidor Sispetro" style="text;html=1;align=center;verticalAlign=middle;whiteSpace=wrap;rounded=0;movable=1;resizable=1;rotatable=1;deletable=1;editable=1;locked=0;connectable=1;" vertex="1" parent="1">
          <mxGeometry x="1935" y="700" width="120" height="30" as="geometry" />
        </mxCell>
        <mxCell id="9QiaCKzGw6aInTvv5w-R-310" value="Firewall" style="text;html=1;align=center;verticalAlign=middle;whiteSpace=wrap;rounded=0;movable=1;resizable=1;rotatable=1;deletable=1;editable=1;locked=0;connectable=1;" vertex="1" parent="1">
          <mxGeometry x="1960" y="795" width="70" height="20" as="geometry" />
        </mxCell>
        <mxCell id="9QiaCKzGw6aInTvv5w-R-311" value="Servidor Reserva" style="text;html=1;align=center;verticalAlign=middle;whiteSpace=wrap;rounded=0;movable=1;resizable=1;rotatable=1;deletable=1;editable=1;locked=0;connectable=1;" vertex="1" parent="1">
          <mxGeometry x="1720" y="700" width="120" height="30" as="geometry" />
        </mxCell>
        <mxCell id="9QiaCKzGw6aInTvv5w-R-312" value="Servidor (GLPI)" style="text;html=1;align=center;verticalAlign=middle;whiteSpace=wrap;rounded=0;movable=1;resizable=1;rotatable=1;deletable=1;editable=1;locked=0;connectable=1;" vertex="1" parent="1">
          <mxGeometry x="2170" y="700" width="120" height="30" as="geometry" />
        </mxCell>
        <mxCell id="9QiaCKzGw6aInTvv5w-R-313" style="edgeStyle=orthogonalEdgeStyle;rounded=0;orthogonalLoop=1;jettySize=auto;html=1;exitX=0;exitY=0.25;exitDx=0;exitDy=0;entryX=1;entryY=0.5;entryDx=0;entryDy=0;movable=1;resizable=1;rotatable=1;deletable=1;editable=1;locked=0;connectable=1;" edge="1" parent="1" source="9QiaCKzGw6aInTvv5w-R-317" target="9QiaCKzGw6aInTvv5w-R-319">
          <mxGeometry relative="1" as="geometry" />
        </mxCell>
        <mxCell id="9QiaCKzGw6aInTvv5w-R-314" style="edgeStyle=orthogonalEdgeStyle;rounded=0;orthogonalLoop=1;jettySize=auto;html=1;exitX=0;exitY=0.75;exitDx=0;exitDy=0;entryX=1;entryY=0.5;entryDx=0;entryDy=0;movable=1;resizable=1;rotatable=1;deletable=1;editable=1;locked=0;connectable=1;" edge="1" parent="1" source="9QiaCKzGw6aInTvv5w-R-317" target="9QiaCKzGw6aInTvv5w-R-322">
          <mxGeometry relative="1" as="geometry" />
        </mxCell>
        <mxCell id="9QiaCKzGw6aInTvv5w-R-315" style="edgeStyle=orthogonalEdgeStyle;rounded=0;orthogonalLoop=1;jettySize=auto;html=1;exitX=1;exitY=0.25;exitDx=0;exitDy=0;entryX=0;entryY=0.5;entryDx=0;entryDy=0;movable=1;resizable=1;rotatable=1;deletable=1;editable=1;locked=0;connectable=1;" edge="1" parent="1" source="9QiaCKzGw6aInTvv5w-R-317" target="9QiaCKzGw6aInTvv5w-R-321">
          <mxGeometry relative="1" as="geometry" />
        </mxCell>
        <mxCell id="9QiaCKzGw6aInTvv5w-R-316" style="edgeStyle=orthogonalEdgeStyle;rounded=0;orthogonalLoop=1;jettySize=auto;html=1;exitX=1;exitY=0.75;exitDx=0;exitDy=0;entryX=0;entryY=0.5;entryDx=0;entryDy=0;movable=1;resizable=1;rotatable=1;deletable=1;editable=1;locked=0;connectable=1;" edge="1" parent="1" source="9QiaCKzGw6aInTvv5w-R-317" target="9QiaCKzGw6aInTvv5w-R-320">
          <mxGeometry relative="1" as="geometry" />
        </mxCell>
        <mxCell id="9QiaCKzGw6aInTvv5w-R-317" value="" style="rounded=0;whiteSpace=wrap;html=1;movable=1;resizable=1;rotatable=1;deletable=1;editable=1;locked=0;connectable=1;" vertex="1" parent="1">
          <mxGeometry x="1935" y="885" width="120" height="40" as="geometry" />
        </mxCell>
        <mxCell id="9QiaCKzGw6aInTvv5w-R-318" value="SWITCH" style="text;html=1;align=center;verticalAlign=middle;whiteSpace=wrap;rounded=0;movable=1;resizable=1;rotatable=1;deletable=1;editable=1;locked=0;connectable=1;" vertex="1" parent="1">
          <mxGeometry x="1965" y="890" width="60" height="30" as="geometry" />
        </mxCell>
        <mxCell id="9QiaCKzGw6aInTvv5w-R-319" value="" style="rounded=0;whiteSpace=wrap;html=1;movable=1;resizable=1;rotatable=1;deletable=1;editable=1;locked=0;connectable=1;" vertex="1" parent="1">
          <mxGeometry x="1720" y="845" width="120" height="40" as="geometry" />
        </mxCell>
        <mxCell id="9QiaCKzGw6aInTvv5w-R-320" value="" style="rounded=0;whiteSpace=wrap;html=1;movable=1;resizable=1;rotatable=1;deletable=1;editable=1;locked=0;connectable=1;" vertex="1" parent="1">
          <mxGeometry x="2170" y="935" width="120" height="40" as="geometry" />
        </mxCell>
        <mxCell id="9QiaCKzGw6aInTvv5w-R-321" value="" style="rounded=0;whiteSpace=wrap;html=1;movable=1;resizable=1;rotatable=1;deletable=1;editable=1;locked=0;connectable=1;" vertex="1" parent="1">
          <mxGeometry x="2170" y="845" width="120" height="40" as="geometry" />
        </mxCell>
        <mxCell id="9QiaCKzGw6aInTvv5w-R-322" value="" style="rounded=0;whiteSpace=wrap;html=1;movable=1;resizable=1;rotatable=1;deletable=1;editable=1;locked=0;connectable=1;" vertex="1" parent="1">
          <mxGeometry x="1720" y="935" width="120" height="40" as="geometry" />
        </mxCell>
        <mxCell id="9QiaCKzGw6aInTvv5w-R-323" value="Financeiro/RH" style="text;html=1;align=center;verticalAlign=middle;whiteSpace=wrap;rounded=0;movable=1;resizable=1;rotatable=1;deletable=1;editable=1;locked=0;connectable=1;" vertex="1" parent="1">
          <mxGeometry x="1750" y="850" width="60" height="30" as="geometry" />
        </mxCell>
        <mxCell id="9QiaCKzGw6aInTvv5w-R-324" value="COMERCIAL" style="text;html=1;align=center;verticalAlign=middle;whiteSpace=wrap;rounded=0;movable=1;resizable=1;rotatable=1;deletable=1;editable=1;locked=0;connectable=1;" vertex="1" parent="1">
          <mxGeometry x="1750" y="940" width="60" height="30" as="geometry" />
        </mxCell>
        <mxCell id="9QiaCKzGw6aInTvv5w-R-325" value="Contabilidade" style="text;html=1;align=center;verticalAlign=middle;whiteSpace=wrap;rounded=0;movable=1;resizable=1;rotatable=1;deletable=1;editable=1;locked=0;connectable=1;" vertex="1" parent="1">
          <mxGeometry x="2200" y="850" width="60" height="30" as="geometry" />
        </mxCell>
        <mxCell id="9QiaCKzGw6aInTvv5w-R-326" value="T.I" style="text;html=1;align=center;verticalAlign=middle;whiteSpace=wrap;rounded=0;movable=1;resizable=1;rotatable=1;deletable=1;editable=1;locked=0;connectable=1;" vertex="1" parent="1">
          <mxGeometry x="2200" y="940" width="60" height="30" as="geometry" />
        </mxCell>
        <mxCell id="9QiaCKzGw6aInTvv5w-R-327" value="" style="rounded=0;whiteSpace=wrap;html=1;movable=1;resizable=1;rotatable=1;deletable=1;editable=1;locked=0;connectable=1;" vertex="1" parent="1">
          <mxGeometry x="2480" y="640" width="640" height="440" as="geometry" />
        </mxCell>
        <mxCell id="9QiaCKzGw6aInTvv5w-R-328" value="Matriz (Cascavel)" style="text;html=1;align=center;verticalAlign=middle;whiteSpace=wrap;rounded=0;fontSize=29;movable=1;resizable=1;rotatable=1;deletable=1;editable=1;locked=0;connectable=1;" vertex="1" parent="1">
          <mxGeometry x="2480" y="1080" width="640" height="30" as="geometry" />
        </mxCell>
        <mxCell id="9QiaCKzGw6aInTvv5w-R-329" value="" style="rounded=0;whiteSpace=wrap;html=1;movable=1;resizable=1;rotatable=1;deletable=1;editable=1;locked=0;connectable=1;" vertex="1" parent="1">
          <mxGeometry x="2735" y="690" width="120" height="40" as="geometry" />
        </mxCell>
        <mxCell id="9QiaCKzGw6aInTvv5w-R-330" style="edgeStyle=orthogonalEdgeStyle;rounded=0;orthogonalLoop=1;jettySize=auto;html=1;exitX=1;exitY=0.5;exitDx=0;exitDy=0;entryX=0.5;entryY=1;entryDx=0;entryDy=0;movable=1;resizable=1;rotatable=1;deletable=1;editable=1;locked=0;connectable=1;" edge="1" parent="1" source="9QiaCKzGw6aInTvv5w-R-334" target="9QiaCKzGw6aInTvv5w-R-336">
          <mxGeometry relative="1" as="geometry" />
        </mxCell>
        <mxCell id="9QiaCKzGw6aInTvv5w-R-331" style="edgeStyle=orthogonalEdgeStyle;rounded=0;orthogonalLoop=1;jettySize=auto;html=1;exitX=0.5;exitY=0;exitDx=0;exitDy=0;entryX=0.5;entryY=1;entryDx=0;entryDy=0;movable=1;resizable=1;rotatable=1;deletable=1;editable=1;locked=0;connectable=1;" edge="1" parent="1" source="9QiaCKzGw6aInTvv5w-R-334" target="9QiaCKzGw6aInTvv5w-R-337">
          <mxGeometry relative="1" as="geometry" />
        </mxCell>
        <mxCell id="9QiaCKzGw6aInTvv5w-R-332" style="edgeStyle=orthogonalEdgeStyle;rounded=0;orthogonalLoop=1;jettySize=auto;html=1;exitX=0;exitY=0.5;exitDx=0;exitDy=0;entryX=0.5;entryY=1;entryDx=0;entryDy=0;movable=1;resizable=1;rotatable=1;deletable=1;editable=1;locked=0;connectable=1;" edge="1" parent="1" source="9QiaCKzGw6aInTvv5w-R-334" target="9QiaCKzGw6aInTvv5w-R-335">
          <mxGeometry relative="1" as="geometry" />
        </mxCell>
        <mxCell id="9QiaCKzGw6aInTvv5w-R-333" style="edgeStyle=orthogonalEdgeStyle;rounded=0;orthogonalLoop=1;jettySize=auto;html=1;exitX=0.5;exitY=1;exitDx=0;exitDy=0;entryX=0.5;entryY=0;entryDx=0;entryDy=0;movable=1;resizable=1;rotatable=1;deletable=1;editable=1;locked=0;connectable=1;" edge="1" parent="1" source="9QiaCKzGw6aInTvv5w-R-334" target="9QiaCKzGw6aInTvv5w-R-345">
          <mxGeometry relative="1" as="geometry" />
        </mxCell>
        <mxCell id="9QiaCKzGw6aInTvv5w-R-334" value="" style="rounded=0;whiteSpace=wrap;html=1;movable=1;resizable=1;rotatable=1;deletable=1;editable=1;locked=0;connectable=1;" vertex="1" parent="1">
          <mxGeometry x="2735" y="780" width="120" height="40" as="geometry" />
        </mxCell>
        <mxCell id="9QiaCKzGw6aInTvv5w-R-335" value="" style="rounded=0;whiteSpace=wrap;html=1;movable=1;resizable=1;rotatable=1;deletable=1;editable=1;locked=0;connectable=1;" vertex="1" parent="1">
          <mxGeometry x="2520" y="690" width="120" height="40" as="geometry" />
        </mxCell>
        <mxCell id="9QiaCKzGw6aInTvv5w-R-336" value="" style="rounded=0;whiteSpace=wrap;html=1;movable=1;resizable=1;rotatable=1;deletable=1;editable=1;locked=0;connectable=1;" vertex="1" parent="1">
          <mxGeometry x="2970" y="690" width="120" height="40" as="geometry" />
        </mxCell>
        <mxCell id="9QiaCKzGw6aInTvv5w-R-337" value="Servidor Sispetro" style="text;html=1;align=center;verticalAlign=middle;whiteSpace=wrap;rounded=0;movable=1;resizable=1;rotatable=1;deletable=1;editable=1;locked=0;connectable=1;" vertex="1" parent="1">
          <mxGeometry x="2735" y="695" width="120" height="30" as="geometry" />
        </mxCell>
        <mxCell id="9QiaCKzGw6aInTvv5w-R-338" value="Firewall" style="text;html=1;align=center;verticalAlign=middle;whiteSpace=wrap;rounded=0;movable=1;resizable=1;rotatable=1;deletable=1;editable=1;locked=0;connectable=1;" vertex="1" parent="1">
          <mxGeometry x="2760" y="790" width="70" height="20" as="geometry" />
        </mxCell>
        <mxCell id="9QiaCKzGw6aInTvv5w-R-339" value="Servidor Reserva" style="text;html=1;align=center;verticalAlign=middle;whiteSpace=wrap;rounded=0;movable=1;resizable=1;rotatable=1;deletable=1;editable=1;locked=0;connectable=1;" vertex="1" parent="1">
          <mxGeometry x="2520" y="695" width="120" height="30" as="geometry" />
        </mxCell>
        <mxCell id="9QiaCKzGw6aInTvv5w-R-340" value="Servidor (GLPI)" style="text;html=1;align=center;verticalAlign=middle;whiteSpace=wrap;rounded=0;movable=1;resizable=1;rotatable=1;deletable=1;editable=1;locked=0;connectable=1;" vertex="1" parent="1">
          <mxGeometry x="2970" y="695" width="120" height="30" as="geometry" />
        </mxCell>
        <mxCell id="9QiaCKzGw6aInTvv5w-R-341" style="edgeStyle=orthogonalEdgeStyle;rounded=0;orthogonalLoop=1;jettySize=auto;html=1;exitX=0;exitY=0.25;exitDx=0;exitDy=0;entryX=1;entryY=0.5;entryDx=0;entryDy=0;movable=1;resizable=1;rotatable=1;deletable=1;editable=1;locked=0;connectable=1;" edge="1" parent="1" source="9QiaCKzGw6aInTvv5w-R-345" target="9QiaCKzGw6aInTvv5w-R-347">
          <mxGeometry relative="1" as="geometry" />
        </mxCell>
        <mxCell id="9QiaCKzGw6aInTvv5w-R-342" style="edgeStyle=orthogonalEdgeStyle;rounded=0;orthogonalLoop=1;jettySize=auto;html=1;exitX=0;exitY=0.75;exitDx=0;exitDy=0;entryX=1;entryY=0.5;entryDx=0;entryDy=0;movable=1;resizable=1;rotatable=1;deletable=1;editable=1;locked=0;connectable=1;" edge="1" parent="1" source="9QiaCKzGw6aInTvv5w-R-345" target="9QiaCKzGw6aInTvv5w-R-350">
          <mxGeometry relative="1" as="geometry" />
        </mxCell>
        <mxCell id="9QiaCKzGw6aInTvv5w-R-343" style="edgeStyle=orthogonalEdgeStyle;rounded=0;orthogonalLoop=1;jettySize=auto;html=1;exitX=1;exitY=0.25;exitDx=0;exitDy=0;entryX=0;entryY=0.5;entryDx=0;entryDy=0;movable=1;resizable=1;rotatable=1;deletable=1;editable=1;locked=0;connectable=1;" edge="1" parent="1" source="9QiaCKzGw6aInTvv5w-R-345" target="9QiaCKzGw6aInTvv5w-R-349">
          <mxGeometry relative="1" as="geometry" />
        </mxCell>
        <mxCell id="9QiaCKzGw6aInTvv5w-R-344" style="edgeStyle=orthogonalEdgeStyle;rounded=0;orthogonalLoop=1;jettySize=auto;html=1;exitX=1;exitY=0.75;exitDx=0;exitDy=0;entryX=0;entryY=0.5;entryDx=0;entryDy=0;movable=1;resizable=1;rotatable=1;deletable=1;editable=1;locked=0;connectable=1;" edge="1" parent="1" source="9QiaCKzGw6aInTvv5w-R-345" target="9QiaCKzGw6aInTvv5w-R-348">
          <mxGeometry relative="1" as="geometry" />
        </mxCell>
        <mxCell id="9QiaCKzGw6aInTvv5w-R-345" value="" style="rounded=0;whiteSpace=wrap;html=1;movable=1;resizable=1;rotatable=1;deletable=1;editable=1;locked=0;connectable=1;" vertex="1" parent="1">
          <mxGeometry x="2735" y="880" width="120" height="40" as="geometry" />
        </mxCell>
        <mxCell id="9QiaCKzGw6aInTvv5w-R-346" value="SWITCH" style="text;html=1;align=center;verticalAlign=middle;whiteSpace=wrap;rounded=0;movable=1;resizable=1;rotatable=1;deletable=1;editable=1;locked=0;connectable=1;" vertex="1" parent="1">
          <mxGeometry x="2765" y="885" width="60" height="30" as="geometry" />
        </mxCell>
        <mxCell id="9QiaCKzGw6aInTvv5w-R-347" value="" style="rounded=0;whiteSpace=wrap;html=1;movable=1;resizable=1;rotatable=1;deletable=1;editable=1;locked=0;connectable=1;" vertex="1" parent="1">
          <mxGeometry x="2520" y="840" width="120" height="40" as="geometry" />
        </mxCell>
        <mxCell id="9QiaCKzGw6aInTvv5w-R-348" value="" style="rounded=0;whiteSpace=wrap;html=1;movable=1;resizable=1;rotatable=1;deletable=1;editable=1;locked=0;connectable=1;" vertex="1" parent="1">
          <mxGeometry x="2970" y="930" width="120" height="40" as="geometry" />
        </mxCell>
        <mxCell id="9QiaCKzGw6aInTvv5w-R-349" value="" style="rounded=0;whiteSpace=wrap;html=1;movable=1;resizable=1;rotatable=1;deletable=1;editable=1;locked=0;connectable=1;" vertex="1" parent="1">
          <mxGeometry x="2970" y="840" width="120" height="40" as="geometry" />
        </mxCell>
        <mxCell id="9QiaCKzGw6aInTvv5w-R-350" value="" style="rounded=0;whiteSpace=wrap;html=1;movable=1;resizable=1;rotatable=1;deletable=1;editable=1;locked=0;connectable=1;" vertex="1" parent="1">
          <mxGeometry x="2520" y="930" width="120" height="40" as="geometry" />
        </mxCell>
        <mxCell id="9QiaCKzGw6aInTvv5w-R-351" value="Financeiro/RH" style="text;html=1;align=center;verticalAlign=middle;whiteSpace=wrap;rounded=0;movable=1;resizable=1;rotatable=1;deletable=1;editable=1;locked=0;connectable=1;" vertex="1" parent="1">
          <mxGeometry x="2550" y="845" width="60" height="30" as="geometry" />
        </mxCell>
        <mxCell id="9QiaCKzGw6aInTvv5w-R-352" value="COMERCIAL" style="text;html=1;align=center;verticalAlign=middle;whiteSpace=wrap;rounded=0;movable=1;resizable=1;rotatable=1;deletable=1;editable=1;locked=0;connectable=1;" vertex="1" parent="1">
          <mxGeometry x="2550" y="935" width="60" height="30" as="geometry" />
        </mxCell>
        <mxCell id="9QiaCKzGw6aInTvv5w-R-353" value="Contabilidade" style="text;html=1;align=center;verticalAlign=middle;whiteSpace=wrap;rounded=0;movable=1;resizable=1;rotatable=1;deletable=1;editable=1;locked=0;connectable=1;" vertex="1" parent="1">
          <mxGeometry x="3000" y="845" width="60" height="30" as="geometry" />
        </mxCell>
        <mxCell id="9QiaCKzGw6aInTvv5w-R-354" value="T.I" style="text;html=1;align=center;verticalAlign=middle;whiteSpace=wrap;rounded=0;movable=1;resizable=1;rotatable=1;deletable=1;editable=1;locked=0;connectable=1;" vertex="1" parent="1">
          <mxGeometry x="3000" y="935" width="60" height="30" as="geometry" />
        </mxCell>
        <mxCell id="9QiaCKzGw6aInTvv5w-R-355" value="" style="rounded=0;whiteSpace=wrap;html=1;movable=1;resizable=1;rotatable=1;deletable=1;editable=1;locked=0;connectable=1;" vertex="1" parent="1">
          <mxGeometry x="120" y="990" width="120" height="40" as="geometry" />
        </mxCell>
        <mxCell id="9QiaCKzGw6aInTvv5w-R-356" value="Gerente" style="text;html=1;align=center;verticalAlign=middle;whiteSpace=wrap;rounded=0;movable=1;resizable=1;rotatable=1;deletable=1;editable=1;locked=0;connectable=1;" vertex="1" parent="1">
          <mxGeometry x="150" y="995" width="60" height="30" as="geometry" />
        </mxCell>
        <mxCell id="9QiaCKzGw6aInTvv5w-R-357" value="" style="rounded=0;whiteSpace=wrap;html=1;movable=1;resizable=1;rotatable=1;deletable=1;editable=1;locked=0;connectable=1;" vertex="1" parent="1">
          <mxGeometry x="570" y="990" width="120" height="40" as="geometry" />
        </mxCell>
        <mxCell id="9QiaCKzGw6aInTvv5w-R-358" value="Gerente Pista" style="text;html=1;align=center;verticalAlign=middle;whiteSpace=wrap;rounded=0;movable=1;resizable=1;rotatable=1;deletable=1;editable=1;locked=0;connectable=1;" vertex="1" parent="1">
          <mxGeometry x="600" y="995" width="60" height="30" as="geometry" />
        </mxCell>
      </root>
    </mxGraphModel>
  </diagram>
</mxfile>
